<?xml version="1.0" standalone="no"?>
<!DOCTYPE svg PUBLIC "-//W3C//DTD SVG 20010904//EN"
 "http://www.w3.org/TR/2001/REC-SVG-20010904/DTD/svg10.dtd">
<svg version="1.0" xmlns="http://www.w3.org/2000/svg"
 width="649.000000pt" height="649.000000pt" viewBox="0 0 649.000000 649.000000"
 preserveAspectRatio="xMidYMid meet">
<metadata>
Created by potrace 1.11, written by Peter Selinger 2001-2013
</metadata>
<g transform="translate(0.000000,649.000000) scale(0.100000,-0.100000)"
fill="#000000" stroke="none">
<path d="M3058 6485 c-2 -1 -41 -5 -88 -9 -47 -3 -95 -8 -107 -10 -12 -3 -47
-7 -79 -11 -171 -18 -477 -96 -674 -172 -172 -65 -460 -203 -501 -239 -8 -8
-19 -14 -23 -14 -20 0 -301 -198 -405 -285 -278 -232 -539 -536 -715 -835
-178 -302 -323 -663 -380 -950 -26 -133 -35 -181 -41 -220 -3 -25 -8 -56 -10
-70 -31 -178 -27 -663 6 -880 137 -891 599 -1650 1324 -2172 419 -302 938
-507 1450 -574 28 -3 59 -8 70 -10 34 -7 256 -18 355 -17 110 0 354 12 372 18
7 2 37 6 67 10 30 3 64 8 75 10 12 2 39 7 61 10 53 8 200 41 305 71 598 166
1137 506 1562 986 69 78 211 262 244 315 10 17 45 73 77 123 99 156 216 397
281 575 135 374 197 728 196 1120 -1 137 -3 179 -14 318 -7 78 -15 134 -37
262 -25 145 -104 437 -144 530 -7 17 -23 57 -35 90 -31 80 -142 313 -192 400
-220 382 -515 715 -878 991 -246 187 -574 360 -885 467 -93 32 -267 83 -316
92 -11 2 -28 6 -37 9 -29 9 -244 44 -307 51 -33 3 -76 8 -95 11 -35 6 -476 14
-482 9z"/>
</g>
</svg>
